<svg width="16" height="16" viewBox="0 0 16 16" fill="none" xmlns="http://www.w3.org/2000/svg">
<path d="M8 9.99996V13.3333C8 13.3333 10.02 12.9666 10.6667 12C11.3867 10.92 10.6667 8.66663 10.6667 8.66663" stroke="#171717" stroke-width="0.833333" stroke-linecap="round" stroke-linejoin="round"/>
<path d="M1.66699 14.3333C1.66699 14.3333 2.00033 11.84 3.00033 11C3.27424 10.7691 3.62376 10.6476 3.98181 10.6587C4.33985 10.6697 4.6812 10.8126 4.94033 11.06C5.46699 11.58 5.47366 12.44 5.00033 13C4.16033 14 1.66699 14.3333 1.66699 14.3333Z" stroke="#171717" stroke-width="0.833333" stroke-linecap="round" stroke-linejoin="round"/>
<path d="M6 7.99996C6.35476 7.07958 6.80147 6.19734 7.33333 5.36663C8.11012 4.12462 9.19175 3.10199 10.4753 2.39602C11.7589 1.69005 13.2018 1.32421 14.6667 1.3333C14.6667 3.14663 14.1467 6.3333 10.6667 8.66663C9.82448 9.19892 8.93114 9.64559 8 9.99996L6 7.99996Z" stroke="#171717" stroke-width="0.833333" stroke-linecap="round" stroke-linejoin="round"/>
<path d="M6.00033 7.99998H2.66699C2.66699 7.99998 3.03366 5.97998 4.00033 5.33331C5.08033 4.61331 7.33366 5.36664 7.33366 5.36664" stroke="#171717" stroke-width="0.833333" stroke-linecap="round" stroke-linejoin="round"/>
</svg>
